<svg height="512" viewBox="0 0 512 512" width="512" xmlns="http://www.w3.org/2000/svg"><path d="M466.414 152h-420c-8.291 0-15-6.709-15-15V45c0-24.814 20.186-45 45-45h360c24.814 0 45 20.186 45 45v92c0 8.291-6.709 15-15 15z" fill="#e3e7ea"/><path d="M436.414 0h-180v152h210c8.291 0 15-6.709 15-15V45c0-24.814-20.186-45-45-45z" fill="#babac0"/><path d="M30.835 316.998a.87.87 0 00.007-.033L1 174.8c-2.1-13.5 1.5-27.001 9.901-36.901C19.6 127.7 32.199 122 45.399 122H466.6c13.2 0 25.8 5.7 34.499 15.899C509.5 147.8 513.1 161.3 511 174.2l-29.842 142.836L511 459.2c2.1 13.5-1.5 27.001-9.901 36.899C492.4 506.3 479.801 512 466.601 512H45.399c-13.2 0-25.8-5.7-34.499-15.901C2.5 486.2-1.1 472.7 1 459.8l29.835-142.802z" fill="#4086f4"/><path d="M30.842 316.965l-.007.033h450.331L511 174.2c2.1-12.9-1.5-26.4-9.901-36.301C492.4 127.7 479.801 122 466.601 122H45.399c-13.2 0-25.8 5.7-34.499 15.899C2.5 147.8-1.1 161.3 1 174.8z" fill="#4175df"/><circle cx="106" cy="75" fill="#fff5f5" r="15"/><circle cx="406" cy="75" fill="#e3e7ea" r="15"/><path d="M196 422c-25.371 0-48.12-16.069-56.572-40.005-2.769-7.808 1.318-16.377 9.141-19.131 7.778-2.783 16.377 1.333 19.131 9.141C171.933 383.958 183.314 392 196 392c16.538 0 30-13.462 30-30s-13.462-30-30-30h-18.647c-8.276 0-15-6.709-15-15s6.724-15 15-15H196c16.538 0 30-13.462 30-30s-13.462-30-30-30c-12.686 0-24.067 8.042-28.301 19.995-2.754 7.822-11.367 11.924-19.131 9.141-7.822-2.754-11.909-11.323-9.141-19.131C147.88 228.069 170.629 212 196 212c33.091 0 60 26.909 60 60 0 17.9-7.881 33.999-20.361 45C248.119 328.001 256 344.1 256 362c0 33.091-26.909 60-60 60z" fill="#fff5f5"/><path d="M148.568 271.136c7.764 2.783 16.377-1.318 19.131-9.141C171.933 250.042 183.315 242 196 242c16.538 0 30 13.462 30 30s-13.462 30-30 30h-18.647c-8.276 0-14.999 6.708-15 14.998h73.288C248.12 305.997 256 289.899 256 272c0-33.091-26.909-60-60-60-25.371 0-48.12 16.069-56.572 40.005-2.769 7.808 1.318 16.377 9.14 19.131z" fill="#e3e7ea"/><path d="M346 422c-8.291 0-15-6.709-15-15V255.022l-21.68 14.458c-6.914 4.57-16.216 2.725-20.801-4.16-4.6-6.899-2.739-16.201 4.16-20.801l45-30A14.997 14.997 0 01361 227v180c0 8.291-6.709 15-15 15z" fill="#fff5f5"/><path d="M309.32 269.48L331 255.022v61.975h30V227c0-5.537-3.047-10.62-7.925-13.228-4.863-2.607-10.796-2.314-15.396.747l-45 30c-6.899 4.6-8.76 13.901-4.16 20.801 4.586 6.885 13.887 8.731 20.801 4.16z" fill="#e3e7ea"/></svg>