<?xml version="1.0" encoding="UTF-8"?>
<svg width="56px" height="56px" viewBox="0 0 56 56" version="1.1" xmlns="http://www.w3.org/2000/svg" xmlns:xlink="http://www.w3.org/1999/xlink">
    <title>Group 11@1x</title>
    <g id="1.-Design" stroke="none" stroke-width="1" fill="none" fill-rule="evenodd">
        <g id="HP" transform="translate(-260, -1321)" stroke="#FFF200" stroke-width="2">
            <g id="Group-11" transform="translate(260, 1321)">
                <rect id="Rectangle" x="1" y="1" width="54" height="54"></rect>
                <g id="news-paper-svgrepo-com" transform="translate(16, 18)" stroke-linecap="round" stroke-linejoin="round">
                    <path d="M18,0 L18,18 C18,19.6 19.3,21 21,21 L21,21 C22.6,21 24,19.7 24,18 L24,9 L18,9" id="Path"></path>
                    <path d="M18,0 L18,18 C18,19.3 18.8,20.4 20,20.8 L20,21 L4,21 L3,21 C1.3,21 0,19.6 0,18 L0,0 L18,0 Z" id="Path"></path>
                    <line x1="4" y1="5" x2="10" y2="5" id="Path"></line>
                    <line x1="4" y1="9" x2="6" y2="9" id="Path"></line>
                </g>
            </g>
        </g>
    </g>
</svg>