<?xml version="1.0" encoding="UTF-8"?>
<svg width="20px" height="20px" viewBox="0 0 20 20" version="1.1" xmlns="http://www.w3.org/2000/svg" xmlns:xlink="http://www.w3.org/1999/xlink">
    <title>FB@1x</title>
    <g id="1.-Design" stroke="none" stroke-width="1" fill="none" fill-rule="evenodd">
        <g id="HP" transform="translate(-1526, -52)" fill="#FFF200" fill-rule="nonzero">
            <g id="HLAVIČKA" transform="translate(0, 24)">
                <g id="Group-2" transform="translate(1520, 22)">
                    <g id="FB" transform="translate(6, 6)">
                        <g id="facebook-circular-logo" transform="translate(-0, 0)">
                            <path d="M10.0000596,0 C4.47723626,0 0,4.4959541 0,10.0418666 C0,15.0159021 3.6052178,19.1352368 8.33224977,19.9329177 L8.33224977,12.1368719 L5.91994369,12.1368719 L5.91994369,9.33139274 L8.33224977,9.33139274 L8.33224977,7.26274115 C8.33224977,4.86251116 9.79213513,3.55452536 11.9247034,3.55452536 C12.9460744,3.55452536 13.8238189,3.63095131 14.0786248,3.66461227 L14.0786248,6.1734917 L12.5995336,6.17421043 C11.4400234,6.17421043 11.2164717,6.72740014 11.2164717,7.53945579 L11.2164717,9.32995526 L13.9831919,9.32995526 L13.6223361,12.1354344 L11.2164717,12.1354344 L11.2164717,20 C16.1641924,19.3953006 20,15.17103 20,10.0389916 C20,4.4959541 15.5227637,0 10.0000596,0 Z" id="Path"></path>
                        </g>
                    </g>
                </g>
            </g>
        </g>
    </g>
</svg>