<?xml version="1.0" encoding="UTF-8"?>
<svg width="56px" height="56px" viewBox="0 0 56 56" version="1.1" xmlns="http://www.w3.org/2000/svg" xmlns:xlink="http://www.w3.org/1999/xlink">
    <title>Group 12@1x</title>
    <g id="1.-Design" stroke="none" stroke-width="1" fill="none" fill-rule="evenodd">
        <g id="HP" transform="translate(-740, -1321)">
            <g id="BOXY" transform="translate(260, 1321)">
                <g id="Group-12" transform="translate(480, 0)">
                    <rect id="Rectangle" stroke="#FFF200" stroke-width="2" x="1" y="1" width="54" height="54"></rect>
                    <g id="calendar-svgrepo-com" transform="translate(18, 16)" fill="#FFF200" fill-rule="nonzero">
                        <path d="M16.4516129,2.59459459 L14.8387097,2.59459459 L14.8387097,0.972972973 C14.8387097,0.714927568 14.7367742,0.467442162 14.5552258,0.284977297 C14.3738065,0.102512432 14.1276129,0 13.8709677,0 C13.6143226,0 13.368129,0.102512432 13.1867097,0.284977297 C13.0051613,0.467442162 12.9032258,0.714927568 12.9032258,0.972972973 L12.9032258,2.59459459 L7.09677419,2.59459459 L7.09677419,0.972972973 C7.09677419,0.714927568 6.9948129,0.467442162 6.81332903,0.284977297 C6.63184516,0.102512432 6.38569032,0 6.12903226,0 C5.87237419,0 5.62621935,0.102512432 5.44473548,0.284977297 C5.26325161,0.467442162 5.16129032,0.714927568 5.16129032,0.972972973 L5.16129032,2.59459459 L3.5483871,2.59459459 C2.60729032,2.59459459 1.70474839,2.97046054 1.03930323,3.63951568 C0.373845161,4.30855784 0,5.21597838 0,6.16216216 L0,20.4324324 C0,21.3785514 0.373845161,22.2860108 1.03930323,22.955027 C1.70474839,23.624173 2.60729032,24 3.5483871,24 L16.4516129,24 C17.3926452,24 18.2952258,23.624173 18.9606452,22.955027 C19.6261935,22.2860108 20,21.3785514 20,20.4324324 L20,6.16216216 C20,5.21597838 19.6261935,4.30855784 18.9606452,3.63951568 C18.2952258,2.97046054 17.3926452,2.59459459 16.4516129,2.59459459 Z M3.5483871,4.54054054 L5.16129032,4.54054054 L5.16129032,6.16216216 C5.16129032,6.42020757 5.26325161,6.66769297 5.44473548,6.85015784 C5.62621935,7.0326227 5.87237419,7.13513514 6.12903226,7.13513514 C6.38569032,7.13513514 6.63184516,7.0326227 6.81332903,6.85015784 C6.9948129,6.66769297 7.09677419,6.42020757 7.09677419,6.16216216 L7.09677419,4.54054054 L12.9032258,4.54054054 L12.9032258,6.16216216 C12.9032258,6.42020757 13.0051613,6.66769297 13.1867097,6.85015784 C13.368129,7.0326227 13.6143226,7.13513514 13.8709677,7.13513514 C14.1276129,7.13513514 14.3738065,7.0326227 14.5552258,6.85015784 C14.7367742,6.66769297 14.8387097,6.42020757 14.8387097,6.16216216 L14.8387097,4.54054054 L16.4516129,4.54054054 C16.8793548,4.54054054 17.2896774,4.71139459 17.592129,5.01550703 C17.8945806,5.31961946 18.0645161,5.73208216 18.0645161,6.16216216 L18.0645161,9.72972973 L1.93548387,9.72972973 L1.93548387,6.16216216 C1.93548387,5.73208216 2.10541935,5.31961946 2.40789677,5.01550703 C2.71037419,4.71139459 3.12061935,4.54054054 3.5483871,4.54054054 Z M16.4516129,22.0540541 L3.5483871,22.0540541 C3.12061935,22.0540541 2.71037419,21.8832 2.40789677,21.5791135 C2.10541935,21.275027 1.93548387,20.8624865 1.93548387,20.4324324 L1.93548387,11.6756757 L18.0645161,11.6756757 L18.0645161,20.4324324 C18.0645161,20.8624865 17.8945806,21.275027 17.592129,21.5791135 C17.2896774,21.8832 16.8793548,22.0540541 16.4516129,22.0540541 Z" id="Shape"></path>
                    </g>
                </g>
            </g>
        </g>
    </g>
</svg>