<?xml version="1.0" encoding="UTF-8"?>
<svg width="56px" height="56px" viewBox="0 0 56 56" version="1.1" xmlns="http://www.w3.org/2000/svg" xmlns:xlink="http://www.w3.org/1999/xlink">
    <title>Group 13@1x</title>
    <g id="1.-Design" stroke="none" stroke-width="1" fill="none" fill-rule="evenodd">
        <g id="HP" transform="translate(-1220, -1321)">
            <g id="BOXY" transform="translate(260, 1321)">
                <g id="Group-13" transform="translate(960, 0)">
                    <rect id="Rectangle" stroke="#FFF200" stroke-width="2" x="1" y="1" width="54" height="54"></rect>
                    <g id="ordered-list-svgrepo-com" transform="translate(14, 18)" fill="#FFF200" fill-rule="nonzero">
                        <path d="M6.10720094,0.930188904 L28,0.930188904 L28,3.22830267 L6.10720094,3.22830267 L6.10720094,0.930188904 Z M6.10720094,8.75471909 L28,8.75471909 L28,11.0528329 L6.10720094,11.0528329 L6.10720094,8.75471909 Z M6.10720094,16.6886833 L28,16.6886833 L28,18.986797 L6.10720094,18.986797 L6.10720094,16.6886833 Z M1.44152245,4.14025257 L2.3208234,4.14025257 L2.3208234,4.4408921e-16 L0.741670679,4.4408921e-16 L0.741670679,0.820754915 L1.44152245,0.820754915 L1.44152245,4.14025257 Z M3.00273025,11.2169838 L1.29796311,11.2169838 L1.54919196,11.0163549 L2.08753947,10.5786189 C2.71561158,10.067927 2.96684042,9.666669 2.96684042,9.13773805 C2.96518068,8.74899404 2.79868417,8.37985489 2.50998897,8.12485344 C2.22129377,7.86985198 1.83843807,7.75375406 1.45946737,7.80629119 C1.05785757,7.78330034 0.666327166,7.93932579 0.387113688,8.23362572 C0.10790021,8.52792565 -0.0312752974,8.93128121 0.00592907078,9.33836703 L0.939064768,9.33836703 C0.913434419,9.17362125 0.95417943,9.00532714 1.05210035,8.8714823 C1.15002127,8.73763747 1.29686153,8.64952755 1.45946737,8.62704611 C1.7666992,8.62704611 2.0157598,8.88018831 2.0157598,9.19245505 C2.00306643,9.50501613 1.85937275,9.7971132 1.62097162,9.99497097 L0.0597638226,11.3628958 L0.0597638226,12.0742168 L3.00273025,12.0742168 L3.00273025,11.2169838 Z M2.35671323,17.7100672 C2.67643392,17.5412967 2.87200612,17.2005358 2.85917092,16.8345953 C2.8384548,16.488631 2.67416709,16.1678828 2.40721198,15.9522103 C2.14025687,15.7365378 1.79575035,15.646232 1.45946737,15.7037774 C1.09047249,15.6712852 0.725830331,15.8036012 0.46051114,16.0662641 C0.19519195,16.328927 0.0554602071,16.6959352 0.0777087398,17.0717022 L0.974954603,17.0717022 C0.954109278,16.7758314 1.16901063,16.5169595 1.45946737,16.4880543 C1.64455656,16.4506183 1.83360714,16.5301966 1.93845776,16.6896788 C2.04330838,16.849161 2.04330838,17.0571365 1.93845776,17.2166187 C1.83360714,17.3761009 1.64455656,17.4556792 1.45946737,17.4182432 L1.29796311,17.4182432 L1.29796311,18.1113251 L1.45946737,18.1113251 C1.87220047,18.1113251 2.12342931,18.3119541 2.12342931,18.6402561 C2.1248775,18.7941435 2.06031209,18.9410414 1.94657587,19.0426294 C1.83283965,19.1442174 1.68121197,19.1904209 1.53124704,19.169187 C1.36158495,19.174116 1.19718311,19.1090421 1.07548658,18.9887871 C0.953790038,18.8685321 0.885160724,18.703335 0.885230017,18.5308221 L0.0418189053,18.5308221 C0.0191472333,18.9341888 0.170753125,19.3275347 0.456959991,19.6079175 C0.743166856,19.8883004 1.13548709,20.0278124 1.53124704,19.9899419 C1.90428814,20.0364745 2.27925851,19.9201599 2.56316378,19.6698446 C2.84706905,19.4195293 3.0133162,19.0586601 3.02067517,18.6767341 C3.04065539,18.2387557 2.76811248,17.8419586 2.35671323,17.7100672 L2.35671323,17.7100672 Z" id="Shape"></path>
                    </g>
                </g>
            </g>
        </g>
    </g>
</svg>