<svg width="56" height="56" viewBox="0 0 56 56" xmlns="http://www.w3.org/2000/svg"><g fill="none" fill-rule="evenodd"><path stroke="#FFF200" stroke-width="2" d="M1 1h54v54H1z"/><path d="M34.452 18.595h-1.613v-1.622a.975.975 0 00-.284-.688.965.965 0 00-1.652.688v1.622h-5.806v-1.622a.976.976 0 00-.284-.688.965.965 0 00-1.652.688v1.622h-1.613c-.94 0-1.843.375-2.509 1.045A3.577 3.577 0 0018 22.162v14.27c0 .947.374 1.854 1.04 2.523A3.538 3.538 0 0021.547 40h12.904c.94 0 1.843-.376 2.509-1.045A3.577 3.577 0 0038 36.432v-14.27c0-.946-.374-1.853-1.04-2.522a3.539 3.539 0 00-2.508-1.045zM21.548 20.54h1.613v1.621c0 .258.102.506.284.688a.965.965 0 001.652-.688v-1.621h5.806v1.621c0 .258.102.506.284.688a.965.965 0 001.652-.688v-1.621h1.613c.427 0 .838.17 1.14.475.303.304.473.716.473 1.146v3.568h-16.13v-3.568c0-.43.17-.842.473-1.146a1.609 1.609 0 011.14-.475zm12.904 17.513H21.548c-.427 0-.838-.17-1.14-.475a1.626 1.626 0 01-.473-1.147v-8.756h16.13v8.756c0 .43-.17.843-.473 1.147a1.609 1.609 0 01-1.14.475z" fill="#FFF200" fill-rule="nonzero"/></g></svg>