<svg width="56" height="56" viewBox="0 0 56 56" xmlns="http://www.w3.org/2000/svg"><g fill="none" fill-rule="evenodd"><path stroke="#FFF200" stroke-width="2" d="M1 1h54v54H1z"/><path d="M20.107 18.93H42v2.298H20.107V18.93zm0 7.825H42v2.298H20.107v-2.298zm0 7.934H42v2.298H20.107v-2.298zM15.442 22.14h.879V18h-1.58v.82h.7v3.32zm1.56 7.077h-1.704l.251-.2.539-.438c.628-.511.879-.912.879-1.441a1.36 1.36 0 00-.457-1.013 1.313 1.313 0 00-1.05-.319 1.37 1.37 0 00-1.073.428c-.28.294-.418.697-.381 1.104h.933a.628.628 0 01.113-.467.608.608 0 01.407-.244.56.56 0 01.557.565 1.1 1.1 0 01-.395.803l-1.561 1.368v.711h2.943v-.857zm-.645 6.493a.951.951 0 00.502-.875 1.228 1.228 0 00-.452-.883 1.188 1.188 0 00-.948-.248c-.369-.033-.733.1-.998.362-.266.263-.406.63-.383 1.006h.897a.545.545 0 01.484-.584.463.463 0 01.48.202.48.48 0 010 .527.463.463 0 01-.48.201h-.161v.693h.161c.413 0 .664.201.664.53a.533.533 0 01-.176.402.515.515 0 01-.416.126.623.623 0 01-.456-.18.644.644 0 01-.19-.458h-.843c-.023.403.129.797.415 1.077.286.28.678.42 1.074.382.373.046.748-.07 1.032-.32.284-.25.45-.611.458-.993a.966.966 0 00-.664-.967z" fill="#FFF200" fill-rule="nonzero"/></g></svg>