<svg width="20" height="20" viewBox="0 0 20 20" xmlns="http://www.w3.org/2000/svg"><path d="M10 0C4.478 0 0 4.478 0 10s4.478 10 10 10 10-4.478 10-10S15.522 0 10 0zm4.566 7.797c.004.098.006.197.006.297 0 3.033-2.308 6.53-6.53 6.53a6.497 6.497 0 01-3.518-1.03c.18.02.362.03.547.03a4.606 4.606 0 002.85-.982 2.298 2.298 0 01-2.143-1.594 2.284 2.284 0 001.036-.04 2.296 2.296 0 01-1.841-2.25V8.73c.31.172.663.275 1.04.287a2.293 2.293 0 01-.71-3.065 6.517 6.517 0 004.73 2.399 2.296 2.296 0 013.911-2.093 4.604 4.604 0 001.458-.558 2.304 2.304 0 01-1.01 1.27 4.578 4.578 0 001.319-.362c-.307.46-.697.865-1.145 1.189z" fill="#FFF200" fill-rule="nonzero"/></svg>